<?xml version="1.0" encoding="UTF-8" standalone="no" ?>
<!DOCTYPE svg PUBLIC "-//W3C//DTD SVG 1.1//EN" "http://www.w3.org/Graphics/SVG/1.1/DTD/svg11.dtd">
<svg xmlns="http://www.w3.org/2000/svg" xmlns:xlink="http://www.w3.org/1999/xlink" version="1.1" width="512" height="512" viewBox="0 0 512 512" xml:space="preserve">
<desc>Created with Fabric.js 5.3.0</desc>
<defs>
</defs>
<g transform="matrix(21.3333333333 0 0 21.3333333333 256 256)" id="eTLrS9J4HR6XWgTeJf1ZS"  >
<path style="stroke: none; stroke-width: 1; stroke-dasharray: none; stroke-linecap: butt; stroke-dashoffset: 0; stroke-linejoin: miter; stroke-miterlimit: 4; fill: rgb(255,255,255); fill-rule: nonzero; opacity: 1;"  transform=" translate(-12.005, -12)" d="M 8.5 5 C 9.33 5 10 5.67 10 6.5 C 10 7.33 9.33 8 8.5 8 C 7.67 8 7 7.33 7 6.5 C 7 5.67 7.67 5 8.5 5 Z M 15.82 8.18 L 15.47 6.76 C 15.360000000000001 6.319999999999999 14.96 6 14.5 6 C 14.04 6 13.64 6.31 13.53 6.76 L 13.18 8.17 L 11.78 8.49 C 11.33 8.59 11.01 8.99 11.01 9.45 C 11.01 9.91 11.31 10.309999999999999 11.75 10.43 L 13.18 10.82 L 13.54 12.25 C 13.649999999999999 12.69 14.049999999999999 13.01 14.51 13.01 C 14.97 13.01 15.37 12.7 15.48 12.25 L 15.83 10.83 L 17.25 10.48 C 17.69 10.370000000000001 18.01 9.97 18.01 9.51 C 18.01 9.049999999999999 17.700000000000003 8.65 17.25 8.54 L 15.83 8.19 Z M 16.61 4.88 L 18.37 5.62 L 19.07 7.37 C 19.22 7.75 19.59 8 20 8 C 20.41 8 20.78 7.75 20.93 7.37 L 21.63 5.63 L 23.369999999999997 4.93 C 23.749999999999996 4.779999999999999 23.999999999999996 4.41 23.999999999999996 3.9999999999999996 C 23.999999999999996 3.589999999999999 23.749999999999996 3.2199999999999998 23.369999999999997 3.0699999999999994 L 21.63 2.369999999999999 L 20.93 0.6299999999999992 C 20.78 0.24999999999999922 20.41 -7.771561172376096e-16 20 -7.771561172376096e-16 C 19.59 -7.771561172376096e-16 19.22 0.24999999999999922 19.07 0.6299999999999992 L 18.38 2.3599999999999994 L 16.65 3.0199999999999996 C 16.27 3.1599999999999997 16.009999999999998 3.5299999999999994 15.999999999999998 3.9399999999999995 C 15.999999999999998 4.35 16.229999999999997 4.72 16.61 4.879999999999999 Z M 24 9 L 24 19 C 24 21.759999999999998 21.759999999999998 24 19 24 L 5 24 C 2.24 24 0 21.759999999999998 0 19 L 0 5 C 0 2.24 2.24 0 5 0 L 15 0 C 15.55 0 16 0.45 16 1 C 16 1.55 15.55 2 15 2 L 5 2 C 3.35 2 2 3.35 2 5 L 2 11.59 L 2.56 11.03 C 3.9000000000000004 9.69 6.09 9.69 7.4399999999999995 11.03 L 13.02 16.61 C 13.559999999999999 17.15 14.45 17.15 14.99 16.61 L 15.57 16.03 C 16.91 14.690000000000001 19.1 14.690000000000001 20.45 16.03 L 22.009999999999998 17.59 L 22.009999999999998 9 C 22.009999999999998 8.45 22.459999999999997 8 23.009999999999998 8 C 23.56 8 24.009999999999998 8.45 24.009999999999998 9 Z M 21.759999999999998 20.17 L 19.019999999999996 17.43 C 18.459999999999997 16.87 17.539999999999996 16.87 16.969999999999995 17.43 L 16.389999999999997 18.009999999999998 C 15.069999999999997 19.33 12.909999999999997 19.33 11.589999999999996 18.009999999999998 L 6.009999999999996 12.429999999999998 C 5.449999999999996 11.869999999999997 4.529999999999996 11.869999999999997 3.9599999999999964 12.429999999999998 L 1.9799999999999964 14.409999999999998 L 1.9799999999999964 19 C 1.9799999999999964 20.65 3.3299999999999965 22 4.979999999999997 22 L 18.979999999999997 22 C 20.219999999999995 22 21.279999999999998 21.25 21.739999999999995 20.17 Z" stroke-linecap="round" />
</g>
</svg>