<?xml version="1.0" encoding="UTF-8" standalone="no" ?>
<!DOCTYPE svg PUBLIC "-//W3C//DTD SVG 1.1//EN" "http://www.w3.org/Graphics/SVG/1.1/DTD/svg11.dtd">
<svg xmlns="http://www.w3.org/2000/svg" xmlns:xlink="http://www.w3.org/1999/xlink" version="1.1" width="512" height="512" viewBox="0 0 512 512" xml:space="preserve">
<desc>Created with Fabric.js 5.3.0</desc>
<defs>
</defs>
<g transform="matrix(21.3333333333 0 0 21.3333333333 256 256)" id="do0wtfeiUrxZ8WMnDJqkI"  >
<path style="stroke: none; stroke-width: 1; stroke-dasharray: none; stroke-linecap: butt; stroke-dashoffset: 0; stroke-linejoin: miter; stroke-miterlimit: 4; fill: rgb(255,255,255); fill-rule: nonzero; opacity: 1;"  transform=" translate(-12, -12)" d="M 15 4.43 C 15 4.63 15.12 4.819999999999999 15.31 4.8999999999999995 L 17.97 6.02 L 19.04 8.68 C 19.119999999999997 8.87 19.3 8.99 19.5 8.99 C 19.7 8.99 19.89 8.870000000000001 19.96 8.68 L 21.02 6.02 L 23.68 4.959999999999999 C 23.87 4.879999999999999 23.99 4.699999999999999 23.99 4.499999999999999 C 23.99 4.299999999999999 23.869999999999997 4.109999999999999 23.68 4.039999999999999 L 21.02 2.979999999999999 L 19.96 0.31999999999999895 C 19.810000000000002 -0.06000000000000105 19.18 -0.06000000000000105 19.03 0.31999999999999895 L 17.970000000000002 2.969999999999999 L 15.320000000000002 3.969999999999999 C 15.130000000000003 4.039999999999999 15.000000000000002 4.219999999999999 15.000000000000002 4.429999999999999 Z M 18.53 3.8299999999999996 C 18.66 3.78 18.76 3.6799999999999997 18.82 3.55 L 19.5 1.8499999999999999 L 20.18 3.55 C 20.23 3.6799999999999997 20.33 3.78 20.46 3.83 L 22.16 4.51 L 20.46 5.1899999999999995 C 20.330000000000002 5.239999999999999 20.23 5.34 20.18 5.47 L 19.5 7.17 L 18.82 5.47 C 18.77 5.35 18.67 5.25 18.55 5.1899999999999995 L 16.84 4.47 L 18.53 3.8299999999999996 Z M 14.510000000000002 9.49 L 13.980000000000002 7.380000000000001 C 13.920000000000002 7.160000000000001 13.720000000000002 7.000000000000001 13.500000000000002 7.000000000000001 C 13.280000000000001 7.000000000000001 13.070000000000002 7.160000000000001 13.020000000000001 7.380000000000001 L 12.490000000000002 9.48 L 10.390000000000002 9.96 C 10.170000000000002 10.010000000000002 10.010000000000002 10.21 10.000000000000002 10.440000000000001 C 10.000000000000002 10.670000000000002 10.150000000000002 10.870000000000001 10.370000000000001 10.930000000000001 L 12.490000000000002 11.500000000000002 L 13.020000000000001 13.610000000000001 C 13.080000000000002 13.830000000000002 13.280000000000001 13.990000000000002 13.500000000000002 13.990000000000002 C 13.720000000000002 13.990000000000002 13.930000000000001 13.830000000000002 13.980000000000002 13.610000000000001 L 14.510000000000002 11.500000000000002 L 16.62 10.970000000000002 C 16.84 10.910000000000002 17 10.710000000000003 17 10.490000000000002 C 17 10.270000000000001 16.84 10.060000000000002 16.62 10.010000000000002 L 14.510000000000002 9.480000000000002 Z M 13.980000000000002 10.620000000000001 C 13.800000000000002 10.66 13.660000000000002 10.8 13.620000000000003 10.98 L 13.500000000000004 11.440000000000001 L 13.380000000000004 10.98 C 13.340000000000005 10.8 13.200000000000005 10.67 13.030000000000005 10.620000000000001 L 12.560000000000004 10.49 L 12.970000000000004 10.4 C 13.150000000000004 10.360000000000001 13.350000000000005 10.17 13.390000000000004 9.98 L 13.490000000000004 9.56 L 13.610000000000003 10.020000000000001 C 13.650000000000002 10.200000000000001 13.790000000000003 10.340000000000002 13.970000000000002 10.38 L 14.430000000000003 10.5 L 13.970000000000002 10.62 Z M 23.5 8 C 23.22 8 23 8.22 23 8.5 L 23 19.5 C 23 19.59 23 19.69 22.99 19.78 L 20.09 16.880000000000003 C 18.94 15.730000000000002 17.07 15.730000000000002 15.92 16.880000000000003 L 15.34 17.46 C 14.6 18.2 13.4 18.2 12.66 17.46 L 7.08 11.88 C 5.93 10.73 4.0600000000000005 10.73 2.91 11.88 L 0.9900000000000002 13.8 L 0.9900000000000002 4.5 C 0.9900000000000002 2.5700000000000003 2.5600000000000005 1 4.49 1 L 15.5 1 C 15.78 1 16 0.78 16 0.5 C 16 0.21999999999999997 15.78 0 15.5 0 L 4.5 0 C 2.02 0 0 2.02 0 4.5 L 0 19.5 C 0 21.98 2.02 24 4.5 24 L 19.5 24 C 21.98 24 24 21.98 24 19.5 L 24 8.5 C 24 8.22 23.78 8 23.5 8 Z M 19.5 23 L 4.5 23 C 2.5700000000000003 23 1 21.43 1 19.5 L 1 15.21 L 3.62 12.59 C 4.38 11.83 5.62 11.83 6.37 12.59 L 11.95 18.17 C 13.079999999999998 19.3 14.91 19.3 16.04 18.17 L 16.619999999999997 17.590000000000003 C 17.38 16.830000000000002 18.619999999999997 16.830000000000002 19.369999999999997 17.590000000000003 L 22.699999999999996 20.92 C 22.159999999999997 22.150000000000002 20.929999999999996 23.01 19.499999999999996 23.01 Z M 7 5 C 7.55 5 8 5.45 8 6 C 8 6.55 7.55 7 7 7 C 6.45 7 6 6.55 6 6 C 6 5.45 6.45 5 7 5 Z" stroke-linecap="round" />
</g>
</svg>